<svg id="e2ca3b52-aaf7-4a8d-a8de-367f9767f1fa" data-name="Layer 1" xmlns="http://www.w3.org/2000/svg" viewBox="0 0 300 120"><path d="M128.39,71.82q0,7.14-3.43,10.61a12.05,12.05,0,0,1-9,3.48,10.83,10.83,0,0,1-8-2.94c-2-2-2.93-4.76-2.93-8.41v-29H94.44v30q0,9.39,5.19,14.77t13.59,5.38q10.38,0,15.17-7.53v6.26H139V45.6H128.39Zm45.07-27.49a25.08,25.08,0,0,0-18.3,7.44,24.68,24.68,0,0,0-7.53,18.29,24.68,24.68,0,0,0,7.53,18.29,26.28,26.28,0,0,0,36.64,0,24.75,24.75,0,0,0,7.48-18.29,24.75,24.75,0,0,0-7.48-18.29A25,25,0,0,0,173.46,44.33Zm10.86,36.78a15.58,15.58,0,0,1-21.72,0,14.94,14.94,0,0,1-4.4-11A14.94,14.94,0,0,1,162.6,59a15.58,15.58,0,0,1,21.72,0,15,15,0,0,1,4.4,11.05A15,15,0,0,1,184.32,81.11Zm49.37-36.78q-10.37,0-15.16,7.53V45.6H208V94.52h10.57V68.3q0-7.14,3.42-10.62a12.12,12.12,0,0,1,9-3.47,10.82,10.82,0,0,1,8,2.94c2,2,2.94,4.76,2.94,8.41v29h10.56v-30q0-9.39-5.18-14.77T233.69,44.33Zm41.45-18.11a6.72,6.72,0,0,0-9.59,0A6.57,6.57,0,0,0,263.6,31a6.75,6.75,0,1,0,11.54-4.74ZM53.41,82.39l0,.06,0-.06L38.28,45.6H22.9V94.52H33.48V58.18l15,36.34h9.92L73.3,57.93V94.52H83.88V45.6H68.44Z"/></svg>